<svg width="30" height="29" viewBox="0 0 30 29" fill="none" xmlns="http://www.w3.org/2000/svg">
<path d="M15 0L18.3677 10.7102H29.2658L20.4491 17.3295L23.8168 28.0398L15 21.4205L6.18322 28.0398L9.55093 17.3295L0.734152 10.7102H11.6323L15 0Z" fill="#C4C4C4" fill-opacity="0.63"/>
<path d="M15 1.66689L17.8907 10.8602L18.0008 11.2102H18.3677H27.7671L20.1489 16.9297L19.866 17.1421L19.9721 17.4795L22.8733 26.7062L15.3002 21.0206L15 20.7952L14.6998 21.0206L7.12667 26.7062L10.0279 17.4795L10.134 17.1421L9.85113 16.9297L2.23294 11.2102H11.6323H11.9992L12.1093 10.8602L15 1.66689Z" stroke="black" stroke-opacity="0.38"/>
</svg>
